<svg xmlns="http://www.w3.org/2000/svg">
  <symbol id="calendar" viewBox="0 0 16 16">
    <path
      d="M14.857,16H1.143C0.512,16,0,15.487,0,14.857v-12c0-0.631,0.512-1.143,1.143-1.143h1.143v0.571C2.286,3.233,3.053,4,4,4 s1.714-0.767,1.714-1.714V1.714h4.572v0.571C10.286,3.233,11.054,4,12,4s1.714-0.767,1.714-1.714V1.714h1.144 c0.63,0,1.143,0.512,1.143,1.143v12C16,15.487,15.487,16,14.857,16z M14.857,5.714H1.143v9.143h13.714V5.714z M11.982,3.429 c-0.622,0-1.125-0.503-1.125-1.125V1.125C10.857,0.503,11.36,0,11.982,0c0.621,0,1.125,0.503,1.125,1.125v1.179 C13.107,2.925,12.604,3.429,11.982,3.429z M3.982,3.429c-0.622,0-1.125-0.503-1.125-1.125V1.125C2.857,0.503,3.36,0,3.982,0 c0.622,0,1.125,0.503,1.125,1.125v1.179C5.107,2.925,4.604,3.429,3.982,3.429z"
      fill="currentColor"/>
  </symbol>
  <symbol id="document" viewBox="0 0 16 16">
    <path
      d="M9.777 0h.297l3.555 4.148V14.82c0 .647-.53 1.18-1.185 1.18h-8.89c-.657 0-1.185-.532-1.185-1.19V1.19C2.37.533 2.902 0 3.558 0h6.22zM9.48.593H3.553c-.326 0-.59.27-.59.59v13.634c0 .326.27.59.592.59h8.888c.328 0 .594-.264.594-.59V4.74h-2.37c-.655 0-1.187-.526-1.187-1.19V.594zm.594.296v2.66c0 .33.268.598.59.598h2.195L10.073.888zM4.148 4.147v.593h4.148V4.15H4.148zm0-1.777v.593h4.148V2.37H4.148zm0 3.556v.593h7.704v-.594H4.148zm0 1.778v.593h7.704v-.593H4.148zm0 1.777v.594h7.704V9.48H4.148zm0 1.78v.592h7.704v-.593H4.148zm0 1.777v.593h7.704v-.593H4.148z"
      fill="currentColor"/>
  </symbol>
  <symbol id="github" viewBox="0 0 16 16">
    <path
      d="M8 .198c-4.418 0-8 3.582-8 8 0 3.534 2.292 6.532 5.47 7.59.4.075.548-.173.548-.384 0-.19-.008-.82-.01-1.49-2.227.484-2.696-.943-2.696-.943-.364-.925-.888-1.17-.888-1.17-.725-.497.055-.485.055-.485.802.056 1.225.824 1.225.824.714 1.22 1.872.867 2.328.663.072-.517.28-.87.508-1.07-1.776-.2-3.644-.888-3.644-3.954 0-.874.313-1.588.824-2.148-.082-.202-.357-1.015.077-2.116 0 0 .672-.216 2.2.82.64-.177 1.323-.267 2.003-.27.68.003 1.365.093 2.004.27 1.527-1.036 2.197-.82 2.197-.82.437 1.102.164 1.916.08 2.116.514.56.823 1.274.823 2.147 0 3.072-1.872 3.748-3.652 3.947.288.248.543.734.543 1.48 0 1.07-.01 1.93-.01 2.195 0 .213.146.462.552.384C13.71 14.726 16 11.73 16 8.196c0-4.418-3.58-8-8-8v.002z"
      fill="currentColor"/>
  </symbol>
  <symbol id="home" viewBox="0 0 16 16">
    <path
      d="M8.24.627c-.058-.05-.13-.08-.205-.085-.098-.01-.2.02-.273.085L4.544 3.385V1.047H3.088v3.586L.12 7.176l.48.552L8 1.383l7.4 6.345.48-.552L8.24.626z"
      fill="currentColor"/>
    <path
      d="M8 1.998l-5.82 4.91v8.552H6.5v-6h3v6h4.32V6.91"
      fill="currentColor"/>
  </symbol>
  <symbol id="link" viewBox="0 0 16 16">
    <path
      d="M11.636 0c.572 0 1.124.11 1.656.325.53.216 1.008.534 1.43.954.42.42.738.895.954 1.428s.322 1.084.322 1.656c0 .568-.107 1.12-.325 1.656-.218.536-.535 1.012-.952 1.43l-2.18 2.18c-.043.042-.105.1-.19.176-.404.36-.857.633-1.357.82-.5.188-1.012.28-1.538.28-.663 0-1.29-.14-1.88-.424-.444-.208-.846-.492-1.205-.852s-.644-.76-.852-1.205C5.802 8.14 6.145 8 6.546 8c.14 0 .282.02.426.06.247.4.568.72.966.967.466.284.972.427 1.518.427.378 0 .745-.072 1.102-.216.356-.145.674-.356.955-.637l2.182-2.18c.28-.28.492-.6.637-.956.144-.356.216-.724.216-1.103 0-.377-.072-.745-.216-1.1-.145-.357-.356-.676-.637-.956s-.6-.492-.955-.636-.724-.216-1.103-.216-.746.072-1.102.216c-.356.144-.675.356-.955.636l-1.53 1.53c-.485-.132-.987-.198-1.505-.198-.083 0-.2.004-.352.012.076-.083.134-.146.176-.188l2.18-2.182C8.97.862 9.445.545 9.98.326 10.517.108 11.068 0 11.636 0zm-5.09 5.09c.662 0 1.29.143 1.88.427.443.21.845.493 1.205.853.36.36.645.76.854 1.204-.285.284-.628.426-1.03.426-.14 0-.282-.02-.426-.062-.246-.398-.568-.72-.966-.967-.465-.282-.97-.424-1.516-.424-.378 0-.746.072-1.103.215-.356.145-.674.357-.955.637L2.308 9.58c-.28.28-.493.6-.638.954-.144.355-.216.724-.216 1.102 0 .38.072.747.216 1.104.145.355.356.675.637.954.28.28.6.492.955.637.357.145.724.217 1.103.217s.746-.072 1.103-.216c.356-.144.675-.355.955-.636l1.528-1.528c.485.133.987.198 1.506.198.083 0 .2-.003.352-.012-.075.084-.133.146-.175.188L7.45 14.722c-.42.42-.896.738-1.43.955-.532.216-1.083.323-1.655.323-.568 0-1.12-.108-1.655-.327-.536-.218-1.012-.534-1.43-.95-.42-.422-.737-.898-.954-1.43s-.324-1.085-.324-1.657c0-.57.108-1.122.324-1.654s.534-1.01.955-1.43L3.463 6.37c.042-.042.104-.1.188-.176.404-.36.857-.633 1.357-.82.5-.188 1.013-.282 1.54-.283z"
      fill="currentColor"/>
  </symbol>
  <symbol id="location" viewBox="0 0 16 16">
    <path
      d="M12.283,2.831c-0.232-0.552-0.566-1.048-0.992-1.473c-0.426-0.426-0.922-0.76-1.475-0.994C9.246,0.123,8.638,0,8.013,0
      C7.387,0,6.78,0.123,6.208,0.364C5.657,0.598,5.161,0.932,4.735,1.358C4.31,1.783,3.975,2.279,3.742,2.831
      C3.5,3.403,3.377,4.01,3.377,4.636c0,1.05,0.743,2.744,2.209,5.032c1.075,1.679,2.165,3.083,2.176,3.097l0.25,0.321l0.25-0.321
      c0.011-0.014,1.1-1.418,2.176-3.097c1.465-2.289,2.209-3.982,2.209-5.032C12.648,4.01,12.525,3.403,12.283,2.831z M8.013,6.226
      c-0.993,0-1.797-0.805-1.797-1.797c0-0.992,0.805-1.797,1.797-1.797s1.795,0.805,1.795,1.797C9.809,5.421,9.006,6.226,8.013,6.226z"
      fill="currentColor"/>
    <path
      d="M15.07,11.442c-0.402-0.371-0.973-0.701-1.693-0.98c-0.594-0.231-1.268-0.42-1.998-0.562
      c-0.111,0.185-0.229,0.373-0.35,0.564c0.781,0.139,1.5,0.331,2.125,0.573c1.26,0.49,1.982,1.131,1.982,1.759
      s-0.723,1.269-1.982,1.759C11.781,15.089,9.951,15.382,8,15.382s-3.782-0.293-5.153-0.826c-1.261-0.49-1.984-1.131-1.984-1.759
      s0.723-1.269,1.984-1.759c0.666-0.259,1.439-0.461,2.283-0.601c-0.122-0.193-0.238-0.382-0.35-0.566
      c-0.791,0.144-1.52,0.343-2.157,0.59c-0.72,0.28-1.29,0.61-1.693,0.98c-0.455,0.419-0.686,0.874-0.686,1.355
      c0,0.48,0.23,0.937,0.686,1.354c0.403,0.371,0.973,0.701,1.693,0.98C4.063,15.691,5.973,16,8,16c2.026,0,3.936-0.309,5.379-0.869
      c0.719-0.279,1.289-0.609,1.691-0.98c0.455-0.417,0.686-0.873,0.686-1.354C15.756,12.315,15.525,11.86,15.07,11.442z"
      fill="currentColor"/>
  </symbol>
  <symbol id="people" viewBox="0 0 16 16">
    <path
      d="M10.706,11.939c-0.229-0.051-0.428-0.093-0.523-0.135c-0.729-0.316-1.177-0.799-1.336-1.435 c0.676-0.581,1.243-1.479,1.566-2.482c0.345-0.447,0.532-0.907,0.532-1.301c0-0.262-0.084-0.48-0.252-0.651 c-0.094-2.194-1.659-3.923-3.604-3.951L7.031,1.983c-1.909,0.011-3.482,1.693-3.62,3.851c-0.245,0.181-0.37,0.433-0.37,0.754 c0,0.463,0.262,1.018,0.72,1.526c0.317,0.87,0.809,1.635,1.394,2.17c-0.158,0.641-0.607,1.123-1.337,1.44 c-0.094,0.041-0.283,0.086-0.5,0.139C2.322,12.1,0.471,12.54,0.006,14.271c-0.028,0.104,0.035,0.211,0.139,0.239l13.657,0.007 c0.018,0,0.034-0.002,0.052-0.007c0.105-0.028,0.167-0.135,0.138-0.24C13.533,12.552,11.693,12.152,10.706,11.939z M0.458,14.145 c0.5-1.318,2.021-1.681,2.95-1.902c0.246-0.058,0.44-0.104,0.565-0.158c1.117-0.484,1.48-1.265,1.589-1.833 c0.013-0.068-0.012-0.139-0.064-0.186c-0.582-0.502-1.072-1.255-1.381-2.12C4.109,7.919,4.095,7.896,4.077,7.877 c-0.409-0.444-0.644-0.915-0.644-1.29c0-0.219,0.083-0.366,0.269-0.477c0.057-0.034,0.093-0.095,0.095-0.16 c0.087-1.995,1.508-3.565,3.251-3.576c0.001,0,0.04,0.003,0.042,0.003c1.752,0.024,3.164,1.629,3.214,3.652 c0.002,0.057,0.027,0.108,0.069,0.145c0.124,0.104,0.181,0.235,0.181,0.414c0,0.313-0.167,0.699-0.471,1.085 c-0.015,0.02-0.024,0.04-0.032,0.062c-0.313,0.994-0.876,1.871-1.542,2.408c-0.057,0.045-0.083,0.117-0.07,0.188 c0.109,0.567,0.473,1.348,1.589,1.832c0.132,0.058,0.337,0.103,0.596,0.158c0.919,0.198,2.42,0.524,2.918,1.817 C13.547,14.16,0.451,14.164,0.458,14.145z"
      fill="currentColor"/>
    <path
      d="M12.707,11.439c-0.229-0.051-0.428-0.093-0.523-0.135c-0.729-0.316-1.177-0.799-1.337-1.435 c0.677-0.581,1.243-1.479,1.566-2.482c0.345-0.447,0.532-0.907,0.532-1.301c0-0.262-0.084-0.48-0.252-0.651 C12.6,3.241,11.034,1.513,9.09,1.484L9.032,1.483C8.649,1.485,8.285,1.567,7.94,1.699c0.218,0.055,0.43,0.129,0.631,0.227 c0.155-0.031,0.313-0.051,0.477-0.052c0.002,0,0.04,0.003,0.042,0.003c1.752,0.024,3.164,1.629,3.214,3.652 c0.002,0.057,0.027,0.108,0.069,0.145c0.124,0.104,0.181,0.235,0.181,0.414c0,0.313-0.167,0.699-0.471,1.085 c-0.015,0.02-0.024,0.04-0.032,0.062c-0.313,0.994-0.876,1.871-1.542,2.408c-0.058,0.045-0.084,0.117-0.07,0.188 c0.108,0.567,0.473,1.348,1.589,1.832c0.132,0.058,0.337,0.103,0.596,0.158c0.919,0.198,2.42,0.524,2.918,1.817 c0.001,0.004-0.528,0.008-1.368,0.01c0.062,0.111,0.107,0.24,0.156,0.366l1.475,0.001c0.018,0,0.034-0.002,0.052-0.007 c0.105-0.028,0.167-0.135,0.138-0.24C15.534,12.052,13.694,11.652,12.707,11.439z"
      fill="currentColor"/>
  </symbol>
  <symbol id="presentation" viewBox="0 0 16 16">
    <path
      d="M16,1.067H8.266V0.267C8.266,0.119,8.147,0,8,0C7.852,0,7.733,0.119,7.733,0.267v0.801H0v11.2 h7.355l-3.278,3.276c-0.104,0.104-0.104,0.273,0,0.378C4.13,15.974,4.198,16,4.266,16c0.068,0,0.137-0.026,0.188-0.078 l3.278-3.278v2.556c0,0.146,0.119,0.267,0.267,0.267c0.147,0,0.266-0.12,0.266-0.267v-2.556l3.279,3.278 C11.596,15.974,11.664,16,11.732,16s0.137-0.026,0.188-0.078c0.104-0.104,0.104-0.273,0-0.378l-3.276-3.276H16V1.067L16,1.067z M0.533,1.6h14.933v10.133H0.533V1.6z"
      fill="currentColor"/>
    <circle cx="2.5" cy="10" r="1" fill="currentColor"/>
    <circle cx="10" cy="7.724" r="1" fill="currentColor"/>
    <circle cx="6" cy="6" r="1" fill="currentColor"/>
    <circle cx="13.5" cy="4" r="1" fill="currentColor"/>
    <polygon points="2.782,10.247 2.218,9.753 5.901,5.543 9.907,7.357 13.224,3.747 13.776,4.253 10.093,8.265 6.099,6.457" fill="currentColor"/>
  </symbol>
  <symbol id="text" viewBox="0 0 16 16">
    <rect y="3.691" width="8.615" height="1.231" fill="currentColor"/>
    <rect width="8.615" height="1.23" fill="currentColor"/>
    <rect y="7.384" width="16" height="1.231" fill="currentColor"/>
    <rect y="11.075" width="16" height="1.233" fill="currentColor"/>
    <rect y="14.769" width="16" height="1.231" fill="currentColor"/>
  </symbol>
  <symbol id="video" viewBox="0 0 16 16">
    <path
      d="M15.838,4.799L15.836,4.8c0,0-0.154-1.103-0.637-1.587c-0.607-0.637-1.291-0.641-1.602-0.678C11.359,2.372,8,2.372,8,2.372 H7.994c0,0-3.359,0-5.597,0.163C2.083,2.573,1.403,2.576,0.793,3.213C0.312,3.697,0.16,4.8,0.16,4.8S0,6.094,0,7.391v1.212 c0,1.295,0.159,2.592,0.159,2.592s0.156,1.103,0.634,1.588c0.609,0.637,1.409,0.615,1.766,0.684C3.841,13.589,8,13.626,8,13.626 s3.363-0.006,5.601-0.166c0.312-0.037,0.994-0.041,1.602-0.678c0.482-0.484,0.639-1.589,0.639-1.589S16,9.9,16,8.604V7.39 C15.996,6.096,15.838,4.799,15.838,4.799z M15,8.532c0,1.134-0.137,2.265-0.137,2.265s-0.137,0.965-0.561,1.389 c-0.529,0.557-1.128,0.561-1.401,0.594C10.943,12.92,8,12.924,8,12.924s-3.64-0.031-4.761-0.137 c-0.311-0.062-1.012-0.041-1.545-0.598c-0.418-0.428-0.555-1.393-0.555-1.393S1,9.664,1,8.532V7.468 c0-1.135,0.139-2.266,0.139-2.266s0.135-0.966,0.555-1.39C2.227,3.256,2.822,3.252,3.097,3.22c1.959-0.144,4.898-0.144,4.898-0.144 H8c0,0,2.939,0,4.898,0.144c0.273,0.032,0.871,0.036,1.4,0.593c0.421,0.424,0.558,1.39,0.558,1.39V5.201c0,0,0.14,1.135,0.144,2.268 V8.532z"
      fill="currentColor"/>
    <path
      d="M6.343 5.578v4.497l4.32-2.24"
      fill="currentColor"/>
  </symbol>
</svg>
